<?xml version="1.0" encoding="utf-8" standalone="yes"?>
<!DOCTYPE svg PUBLIC "-//W3C//DTD SVG 1.1//EN" "http://www.w3.org/Graphics/SVG/1.1/DTD/svg11.dtd">
<svg xmlns="http://www.w3.org/2000/svg" xmlns:xlink="http://www.w3.org/1999/xlink" xmlns:dc="http://purl.org/dc/elements/1.1/" xmlns:cc="http://web.resource.org/cc/" xmlns:rdf="http://www.w3.org/1999/02/22-rdf-syntax-ns#" xmlns:sodipodi="http://sodipodi.sourceforge.net/DTD/sodipodi-0.dtd" xmlns:inkscape="http://www.inkscape.org/namespaces/inkscape" version="1.1" baseProfile="full" width="808px" height="808px" viewBox="0 0 808 808" preserveAspectRatio="xMidYMid meet" id="svg_document" style="zoom: 2;"><!-- Created with macSVG - https://macsvg.org/ - https://github.com/dsward2/macsvg/ --><title id="svg_document_title">Untitled.svg</title><defs id="svg_document_defs"></defs><g id="main_group"><circle stroke="#356e93" id="circle1" cy="404px" stroke-width="0" fill="#356e93" r="404px" cx="404px" transform=""></circle></g><polygon points="374,170 374,138 470,242 454,256" stroke="orange" id="polygon1" stroke-width="0" fill="orange" transform=""></polygon><polygon points="374,138 374,170 294,256 278,242" stroke="orange" id="polygon3" stroke-width="0" fill="orange" transform=""></polygon><polygon points="490,261 490,293 410,379 394,365" stroke="orange" stroke-width="0" id="polygon2" fill="orange" transform=""></polygon><polygon points="493,296 493,264 589,368 573,382" stroke="orange" stroke-width="0" id="polygon4" fill="orange" transform=""></polygon><circle stroke="deepskyblue" cx="376px" id="circle2" stroke-width="0" cy="144px" fill="deepskyblue" r="44px" transform="" visibility="visible"></circle><circle stroke="deepskyblue" transform="" stroke-width="0" id="circle3" cy="276px" fill="deepskyblue" r="44px" cx="262px" visibility="visible"></circle><circle stroke="deepskyblue" cx="490px" stroke-width="0" id="circle4" cy="276px" fill="deepskyblue" r="44px" transform="" visibility="visible"></circle><circle stroke="deepskyblue" transform="" stroke-width="0" id="circle5" cy="392px" fill="deepskyblue" r="44px" cx="376px" visibility="visible"></circle><circle stroke="deepskyblue" stroke-width="0" cy="392px" id="circle6" fill="deepskyblue" r="44px" cx="604px" transform="" visibility="visible"></circle><path d="M212,654 L212,534 A16,16 0 0 1 244,534 L244,654 A16,16 0 0 1 212,654" stroke-width="2" stroke="orange" fill-opacity="1" fill="orange"></path><path d="M308,654 L308,534 A16,16 0 0 1 340,534 L340,654 A16,16 0 0 1 308,654" stroke-width="2" stroke="orange" fill-opacity="1" fill="orange"></path><path d="M312,666 L217,546 A16,16 0 0 1 238,522 L334,642 A16,16 0 0 1 312,666" stroke-width="2" stroke="deepskyblue" fill-opacity="1" fill="deepskyblue"></path><polyline points="592.25,633.375" stroke="#000000" id="polyline1" stroke-width="3px" fill="none" transform=""></polyline><path d="M395.5,520.000061 C389.531189,521.646606 386.512482,523.156006 381.229736,527.135193 C369.97818,535.573853 363.597748,550.598816 365.244293,564.594604 C366.410614,574.542603 370.801453,583.324341 378.485443,591.008301 C389,599 389,599 400,604.5 A12,12 0 0 0 415.125,576.875 C399.616394,570.769165 395.843018,568.024902 395.843018,560.203735 C395.843018,552.451172 402.22348,548.128906 411.965668,549.226624 C417.248413,549.844116 421.090393,550.941772 428.842987,553.96051 C438.791016,557.80249 444.485382,557.047852 449.699524,550.941772 C454.845093,544.835754 454.570618,536.122681 448.876251,530.428284 C445.78894,527.340942 437.075836,523.498962 427.539459,520.96051 C418.414734,518.490662 402.772339,518.079041 395.5,520 " id="path3" fill="orange"></path><path d="M400,604.5 L409.015564,607.954224 C418.757751,611.796204 421.570648,613.511414 423.90329,616.941711 C429.117432,624.762939 426.716187,634.985352 418.757751,638.895935 C412.78894,641.846008 399.547791,640.611084 384.042603,635.671387 C376.633057,633.338745 372.585236,633.407349 368.057159,636.014404 C357.148651,642.257629 358.177765,658.311707 369.772339,663.320007 C370.835754,663.783081 372.396545,664.336243 374.265015,664.929077 C376.133484,665.521851 378.309631,666.154358 380.603668,666.776123 C385.191772,668.019592 390.251526,669.220215 394.265045,669.974915 C402.292053,671.552856 416.562317,671.552856 422.874176,670.043518 C431.244232,668.053894 437.487457,664.554932 443.662109,658.38031 C452.992676,648.98114 457.177673,638.827332 457.177673,625.723389 C457.177673,614.60907 453.747314,604.523804 447.161041,596.496826 C441.398041,589.430298 436.183929,585.862732 424.726562,581.128845 L415.125,576.875 A12,12 0 0 0 400,604.5" id="path2" fill="deepskyblue"></path><path stroke="deepskyblue" id="path5" stroke-width="1px" d="M502,532 C502,532 512.858276,522.861816 525.866577,518.884216 C538.875,514.906372 554.893494,513.723755 566.181946,518.131348 C577.470154,522.539368 592.736206,531.139954 600.046631,541.460632 C607.357117,551.781372 615.527649,563.284546 617.247803,579.948303 C618.967957,596.611938 617.355347,609.297729 614.56012,618.865845 C611.764893,628.434021 608.217285,635.637146 601.766846,643.269958 C595.316406,650.903137 584.780579,659.073669 584.780579,659.073669 A12,12 0 0 1 567.901978,634.884583 C572.632263,631.229126 576.610046,626.821472 581.23291,619.940918 C585.855774,613.060608 588.758423,600.482239 588.220886,591.451599 C587.683289,582.420898 584.888184,571.777649 579.727844,564.467224 C574.567505,557.156799 567.68689,551.566406 561.774109,548.878662 C555.861145,546.190918 550.485779,545.008301 542.745239,545.653503 C535.004822,546.298584 523.931519,552.856445 521.673828,554.684143 A12,12 0 0 1 502,532 " fill="deepskyblue" transform=""></path><path stroke="orange" id="path1" stroke-width="1" d="M500.5,534.125 C500.5,534.125 494.909637,537.565186 488.781738,547.563477 C482.653717,557.561584 479.321075,564.87207 477.385925,578.310425 C475.558319,591.748901 475.235779,600.349487 477.815979,612.497803 C477.815979,612.497803 475.235779,600.349487 477.815979,612.497803 C477.815979,612.497803 475.235779,600.349487 477.815979,612.497803 C480.396118,624.646118 489.211761,638.299561 495.66217,646.470215 C502.11264,654.640747 507.595459,659.693481 519.528809,665.176392 C531.462097,670.659302 536.944946,671.089294 548.98584,670.874268 C561.026611,670.659302 560.274048,670.014221 568.12207,667.756592 C575.970093,665.498962 583.925659,660.015991 583.925659,660.015991 A12,12 0 0 0 569.412109,633.461731 C569.412109,633.461731 563.606812,638.192139 555.543701,639.589722 C547.480713,640.987305 541.890259,640.987305 535.762451,639.267151 C529.634521,637.547058 525.979248,634.106812 520.496338,629.268921 C515.013489,624.431152 510.175537,614.863037 508.455505,609.057617 C506.735413,603.252197 505.767822,594.00647 506.627991,584.545898 C506.627991,584.545898 505.767822,594.00647 506.627991,584.545898 C507.487976,575.085327 512.755737,566.377197 512.755737,566.377197 C512.755737,566.377197 513.938477,564.442017 517.271118,560.356873 C520.603882,556.271484 520.603882,556.809021 522.001404,555.196411 A12,12 0 0 0 500.5,534.125 " fill="orange" transform=""></path><path stroke="deepskyblue" stroke-width="1px" id="path4" d="M601.766846,643.26958 C595.316406,650.903137 584.780579,659.073669 584.780579,659.073669 A12,12 0 0 1 567.901978,634.884583 C572.632263,631.229126 576.610046,626.821472 581.23291,619.940918 " fill="deepskyblue" transform=""></path></svg>